<?xml version="1.0" encoding="utf-8"?>
<svg xmlns="http://www.w3.org/2000/svg" xmlns:xlink="http://www.w3.org/1999/xlink" width="400" height="300" viewBox="0 0 1600 1200">
<defs>
  <clipPath id="clip430">
    <rect x="0" y="0" width="1600" height="1200"/>
  </clipPath>
</defs>
<path clip-path="url(#clip430)" d="M0 1200 L1600 1200 L1600 0 L0 0  Z" fill="#ffffff" fill-rule="evenodd" fill-opacity="1"/>
<defs>
  <clipPath id="clip431">
    <rect x="320" y="0" width="1121" height="1121"/>
  </clipPath>
</defs>
<path clip-path="url(#clip430)" d="M173.385 1016.92 L1392.76 1016.92 L1392.76 47.2441 L173.385 47.2441  Z" fill="#ffffff" fill-rule="evenodd" fill-opacity="1"/>
<defs>
  <clipPath id="clip432">
    <rect x="173" y="47" width="1220" height="971"/>
  </clipPath>
</defs>
<polyline clip-path="url(#clip432)" style="stroke:#000000; stroke-linecap:round; stroke-linejoin:round; stroke-width:2; stroke-opacity:0.1; fill:none" points="173.385,1016.92 173.385,47.2441 "/>
<polyline clip-path="url(#clip432)" style="stroke:#000000; stroke-linecap:round; stroke-linejoin:round; stroke-width:2; stroke-opacity:0.1; fill:none" points="347.581,1016.92 347.581,47.2441 "/>
<polyline clip-path="url(#clip432)" style="stroke:#000000; stroke-linecap:round; stroke-linejoin:round; stroke-width:2; stroke-opacity:0.1; fill:none" points="521.777,1016.92 521.777,47.2441 "/>
<polyline clip-path="url(#clip432)" style="stroke:#000000; stroke-linecap:round; stroke-linejoin:round; stroke-width:2; stroke-opacity:0.1; fill:none" points="695.973,1016.92 695.973,47.2441 "/>
<polyline clip-path="url(#clip432)" style="stroke:#000000; stroke-linecap:round; stroke-linejoin:round; stroke-width:2; stroke-opacity:0.1; fill:none" points="870.168,1016.92 870.168,47.2441 "/>
<polyline clip-path="url(#clip432)" style="stroke:#000000; stroke-linecap:round; stroke-linejoin:round; stroke-width:2; stroke-opacity:0.1; fill:none" points="1044.36,1016.92 1044.36,47.2441 "/>
<polyline clip-path="url(#clip432)" style="stroke:#000000; stroke-linecap:round; stroke-linejoin:round; stroke-width:2; stroke-opacity:0.1; fill:none" points="1218.56,1016.92 1218.56,47.2441 "/>
<polyline clip-path="url(#clip432)" style="stroke:#000000; stroke-linecap:round; stroke-linejoin:round; stroke-width:2; stroke-opacity:0.1; fill:none" points="1392.76,1016.92 1392.76,47.2441 "/>
<polyline clip-path="url(#clip430)" style="stroke:#000000; stroke-linecap:round; stroke-linejoin:round; stroke-width:4; stroke-opacity:1; fill:none" points="173.385,1016.92 1392.76,1016.92 "/>
<polyline clip-path="url(#clip430)" style="stroke:#000000; stroke-linecap:round; stroke-linejoin:round; stroke-width:4; stroke-opacity:1; fill:none" points="173.385,1016.92 173.385,998.022 "/>
<polyline clip-path="url(#clip430)" style="stroke:#000000; stroke-linecap:round; stroke-linejoin:round; stroke-width:4; stroke-opacity:1; fill:none" points="347.581,1016.92 347.581,998.022 "/>
<polyline clip-path="url(#clip430)" style="stroke:#000000; stroke-linecap:round; stroke-linejoin:round; stroke-width:4; stroke-opacity:1; fill:none" points="521.777,1016.92 521.777,998.022 "/>
<polyline clip-path="url(#clip430)" style="stroke:#000000; stroke-linecap:round; stroke-linejoin:round; stroke-width:4; stroke-opacity:1; fill:none" points="695.973,1016.92 695.973,998.022 "/>
<polyline clip-path="url(#clip430)" style="stroke:#000000; stroke-linecap:round; stroke-linejoin:round; stroke-width:4; stroke-opacity:1; fill:none" points="870.168,1016.92 870.168,998.022 "/>
<polyline clip-path="url(#clip430)" style="stroke:#000000; stroke-linecap:round; stroke-linejoin:round; stroke-width:4; stroke-opacity:1; fill:none" points="1044.36,1016.92 1044.36,998.022 "/>
<polyline clip-path="url(#clip430)" style="stroke:#000000; stroke-linecap:round; stroke-linejoin:round; stroke-width:4; stroke-opacity:1; fill:none" points="1218.56,1016.92 1218.56,998.022 "/>
<polyline clip-path="url(#clip430)" style="stroke:#000000; stroke-linecap:round; stroke-linejoin:round; stroke-width:4; stroke-opacity:1; fill:none" points="1392.76,1016.92 1392.76,998.022 "/>
<path clip-path="url(#clip430)" d="M117.668 1068.98 L125.307 1068.98 L125.307 1042.62 L116.997 1044.29 L116.997 1040.03 L125.26 1038.36 L129.936 1038.36 L129.936 1068.98 L137.575 1068.98 L137.575 1072.92 L117.668 1072.92 L117.668 1068.98 Z" fill="#000000" fill-rule="nonzero" fill-opacity="1" /><path clip-path="url(#clip430)" d="M157.02 1056.51 Q153.686 1056.51 151.765 1058.29 Q149.867 1060.07 149.867 1063.2 Q149.867 1066.32 151.765 1068.11 Q153.686 1069.89 157.02 1069.89 Q160.353 1069.89 162.274 1068.11 Q164.195 1066.3 164.195 1063.2 Q164.195 1060.07 162.274 1058.29 Q160.376 1056.51 157.02 1056.51 M152.344 1054.52 Q149.334 1053.78 147.645 1051.72 Q145.978 1049.66 145.978 1046.69 Q145.978 1042.55 148.918 1040.14 Q151.881 1037.73 157.02 1037.73 Q162.182 1037.73 165.121 1040.14 Q168.061 1042.55 168.061 1046.69 Q168.061 1049.66 166.371 1051.72 Q164.705 1053.78 161.719 1054.52 Q165.098 1055.3 166.973 1057.6 Q168.871 1059.89 168.871 1063.2 Q168.871 1068.22 165.793 1070.91 Q162.737 1073.59 157.02 1073.59 Q151.302 1073.59 148.223 1070.91 Q145.168 1068.22 145.168 1063.2 Q145.168 1059.89 147.066 1057.6 Q148.964 1055.3 152.344 1054.52 M150.631 1047.13 Q150.631 1049.82 152.297 1051.32 Q153.987 1052.83 157.02 1052.83 Q160.029 1052.83 161.719 1051.32 Q163.432 1049.82 163.432 1047.13 Q163.432 1044.45 161.719 1042.94 Q160.029 1041.44 157.02 1041.44 Q153.987 1041.44 152.297 1042.94 Q150.631 1044.45 150.631 1047.13 Z" fill="#000000" fill-rule="nonzero" fill-opacity="1" /><path clip-path="url(#clip430)" d="M187.181 1056.51 Q183.848 1056.51 181.927 1058.29 Q180.029 1060.07 180.029 1063.2 Q180.029 1066.32 181.927 1068.11 Q183.848 1069.89 187.181 1069.89 Q190.515 1069.89 192.436 1068.11 Q194.357 1066.3 194.357 1063.2 Q194.357 1060.07 192.436 1058.29 Q190.538 1056.51 187.181 1056.51 M182.506 1054.52 Q179.496 1053.78 177.806 1051.72 Q176.14 1049.66 176.14 1046.69 Q176.14 1042.55 179.08 1040.14 Q182.043 1037.73 187.181 1037.73 Q192.343 1037.73 195.283 1040.14 Q198.223 1042.55 198.223 1046.69 Q198.223 1049.66 196.533 1051.72 Q194.867 1053.78 191.88 1054.52 Q195.26 1055.3 197.135 1057.6 Q199.033 1059.89 199.033 1063.2 Q199.033 1068.22 195.955 1070.91 Q192.899 1073.59 187.181 1073.59 Q181.464 1073.59 178.385 1070.91 Q175.33 1068.22 175.33 1063.2 Q175.33 1059.89 177.228 1057.6 Q179.126 1055.3 182.506 1054.52 M180.793 1047.13 Q180.793 1049.82 182.459 1051.32 Q184.149 1052.83 187.181 1052.83 Q190.191 1052.83 191.88 1051.32 Q193.593 1049.82 193.593 1047.13 Q193.593 1044.45 191.88 1042.94 Q190.191 1041.44 187.181 1041.44 Q184.149 1041.44 182.459 1042.94 Q180.793 1044.45 180.793 1047.13 Z" fill="#000000" fill-rule="nonzero" fill-opacity="1" /><path clip-path="url(#clip430)" d="M220.191 1042.43 L208.385 1060.88 L220.191 1060.88 L220.191 1042.43 M218.964 1038.36 L224.843 1038.36 L224.843 1060.88 L229.774 1060.88 L229.774 1064.77 L224.843 1064.77 L224.843 1072.92 L220.191 1072.92 L220.191 1064.77 L204.589 1064.77 L204.589 1060.26 L218.964 1038.36 Z" fill="#000000" fill-rule="nonzero" fill-opacity="1" /><path clip-path="url(#clip430)" d="M292.153 1068.98 L299.792 1068.98 L299.792 1042.62 L291.482 1044.29 L291.482 1040.03 L299.746 1038.36 L304.422 1038.36 L304.422 1068.98 L312.06 1068.98 L312.06 1072.92 L292.153 1072.92 L292.153 1068.98 Z" fill="#000000" fill-rule="nonzero" fill-opacity="1" /><path clip-path="url(#clip430)" d="M331.505 1056.51 Q328.171 1056.51 326.25 1058.29 Q324.352 1060.07 324.352 1063.2 Q324.352 1066.32 326.25 1068.11 Q328.171 1069.89 331.505 1069.89 Q334.838 1069.89 336.759 1068.11 Q338.681 1066.3 338.681 1063.2 Q338.681 1060.07 336.759 1058.29 Q334.861 1056.51 331.505 1056.51 M326.829 1054.52 Q323.82 1053.78 322.13 1051.72 Q320.463 1049.66 320.463 1046.69 Q320.463 1042.55 323.403 1040.14 Q326.366 1037.73 331.505 1037.73 Q336.667 1037.73 339.607 1040.14 Q342.546 1042.55 342.546 1046.69 Q342.546 1049.66 340.857 1051.72 Q339.19 1053.78 336.204 1054.52 Q339.583 1055.3 341.458 1057.6 Q343.357 1059.89 343.357 1063.2 Q343.357 1068.22 340.278 1070.91 Q337.222 1073.59 331.505 1073.59 Q325.787 1073.59 322.708 1070.91 Q319.653 1068.22 319.653 1063.2 Q319.653 1059.89 321.551 1057.6 Q323.449 1055.3 326.829 1054.52 M325.116 1047.13 Q325.116 1049.82 326.783 1051.32 Q328.472 1052.83 331.505 1052.83 Q334.514 1052.83 336.204 1051.32 Q337.917 1049.82 337.917 1047.13 Q337.917 1044.45 336.204 1042.94 Q334.514 1041.44 331.505 1041.44 Q328.472 1041.44 326.783 1042.94 Q325.116 1044.45 325.116 1047.13 Z" fill="#000000" fill-rule="nonzero" fill-opacity="1" /><path clip-path="url(#clip430)" d="M361.667 1056.51 Q358.333 1056.51 356.412 1058.29 Q354.514 1060.07 354.514 1063.2 Q354.514 1066.32 356.412 1068.11 Q358.333 1069.89 361.667 1069.89 Q365 1069.89 366.921 1068.11 Q368.842 1066.3 368.842 1063.2 Q368.842 1060.07 366.921 1058.29 Q365.023 1056.51 361.667 1056.51 M356.991 1054.52 Q353.981 1053.78 352.292 1051.72 Q350.625 1049.66 350.625 1046.69 Q350.625 1042.55 353.565 1040.14 Q356.528 1037.73 361.667 1037.73 Q366.829 1037.73 369.768 1040.14 Q372.708 1042.55 372.708 1046.69 Q372.708 1049.66 371.018 1051.72 Q369.352 1053.78 366.366 1054.52 Q369.745 1055.3 371.62 1057.6 Q373.518 1059.89 373.518 1063.2 Q373.518 1068.22 370.44 1070.91 Q367.384 1073.59 361.667 1073.59 Q355.949 1073.59 352.87 1070.91 Q349.815 1068.22 349.815 1063.2 Q349.815 1059.89 351.713 1057.6 Q353.611 1055.3 356.991 1054.52 M355.278 1047.13 Q355.278 1049.82 356.944 1051.32 Q358.634 1052.83 361.667 1052.83 Q364.676 1052.83 366.366 1051.32 Q368.079 1049.82 368.079 1047.13 Q368.079 1044.45 366.366 1042.94 Q364.676 1041.44 361.667 1041.44 Q358.634 1041.44 356.944 1042.94 Q355.278 1044.45 355.278 1047.13 Z" fill="#000000" fill-rule="nonzero" fill-opacity="1" /><path clip-path="url(#clip430)" d="M391.828 1056.51 Q388.495 1056.51 386.574 1058.29 Q384.676 1060.07 384.676 1063.2 Q384.676 1066.32 386.574 1068.11 Q388.495 1069.89 391.828 1069.89 Q395.162 1069.89 397.083 1068.11 Q399.004 1066.3 399.004 1063.2 Q399.004 1060.07 397.083 1058.29 Q395.185 1056.51 391.828 1056.51 M387.153 1054.52 Q384.143 1053.78 382.454 1051.72 Q380.787 1049.66 380.787 1046.69 Q380.787 1042.55 383.727 1040.14 Q386.69 1037.73 391.828 1037.73 Q396.99 1037.73 399.93 1040.14 Q402.87 1042.55 402.87 1046.69 Q402.87 1049.66 401.18 1051.72 Q399.514 1053.78 396.528 1054.52 Q399.907 1055.3 401.782 1057.6 Q403.68 1059.89 403.68 1063.2 Q403.68 1068.22 400.602 1070.91 Q397.546 1073.59 391.828 1073.59 Q386.111 1073.59 383.032 1070.91 Q379.977 1068.22 379.977 1063.2 Q379.977 1059.89 381.875 1057.6 Q383.773 1055.3 387.153 1054.52 M385.44 1047.13 Q385.44 1049.82 387.106 1051.32 Q388.796 1052.83 391.828 1052.83 Q394.838 1052.83 396.528 1051.32 Q398.24 1049.82 398.24 1047.13 Q398.24 1044.45 396.528 1042.94 Q394.838 1041.44 391.828 1041.44 Q388.796 1041.44 387.106 1042.94 Q385.44 1044.45 385.44 1047.13 Z" fill="#000000" fill-rule="nonzero" fill-opacity="1" /><path clip-path="url(#clip430)" d="M467.101 1068.98 L474.74 1068.98 L474.74 1042.62 L466.43 1044.29 L466.43 1040.03 L474.694 1038.36 L479.37 1038.36 L479.37 1068.98 L487.009 1068.98 L487.009 1072.92 L467.101 1072.92 L467.101 1068.98 Z" fill="#000000" fill-rule="nonzero" fill-opacity="1" /><path clip-path="url(#clip430)" d="M506.453 1056.51 Q503.12 1056.51 501.198 1058.29 Q499.3 1060.07 499.3 1063.2 Q499.3 1066.32 501.198 1068.11 Q503.12 1069.89 506.453 1069.89 Q509.786 1069.89 511.707 1068.11 Q513.629 1066.3 513.629 1063.2 Q513.629 1060.07 511.707 1058.29 Q509.809 1056.51 506.453 1056.51 M501.777 1054.52 Q498.768 1053.78 497.078 1051.72 Q495.411 1049.66 495.411 1046.69 Q495.411 1042.55 498.351 1040.14 Q501.314 1037.73 506.453 1037.73 Q511.615 1037.73 514.555 1040.14 Q517.494 1042.55 517.494 1046.69 Q517.494 1049.66 515.805 1051.72 Q514.138 1053.78 511.152 1054.52 Q514.532 1055.3 516.406 1057.6 Q518.305 1059.89 518.305 1063.2 Q518.305 1068.22 515.226 1070.91 Q512.17 1073.59 506.453 1073.59 Q500.735 1073.59 497.657 1070.91 Q494.601 1068.22 494.601 1063.2 Q494.601 1059.89 496.499 1057.6 Q498.397 1055.3 501.777 1054.52 M500.064 1047.13 Q500.064 1049.82 501.731 1051.32 Q503.42 1052.83 506.453 1052.83 Q509.462 1052.83 511.152 1051.32 Q512.865 1049.82 512.865 1047.13 Q512.865 1044.45 511.152 1042.94 Q509.462 1041.44 506.453 1041.44 Q503.42 1041.44 501.731 1042.94 Q500.064 1044.45 500.064 1047.13 Z" fill="#000000" fill-rule="nonzero" fill-opacity="1" /><path clip-path="url(#clip430)" d="M526.754 1072.2 L526.754 1067.94 Q528.513 1068.78 530.318 1069.22 Q532.124 1069.66 533.86 1069.66 Q538.49 1069.66 540.92 1066.55 Q543.374 1063.43 543.721 1057.09 Q542.379 1059.08 540.318 1060.14 Q538.258 1061.21 535.758 1061.21 Q530.573 1061.21 527.541 1058.08 Q524.531 1054.93 524.531 1049.49 Q524.531 1044.17 527.68 1040.95 Q530.828 1037.73 536.059 1037.73 Q542.055 1037.73 545.203 1042.34 Q548.374 1046.92 548.374 1055.67 Q548.374 1063.85 544.485 1068.73 Q540.619 1073.59 534.068 1073.59 Q532.309 1073.59 530.504 1073.24 Q528.698 1072.9 526.754 1072.2 M536.059 1057.55 Q539.207 1057.55 541.036 1055.4 Q542.888 1053.24 542.888 1049.49 Q542.888 1045.77 541.036 1043.61 Q539.207 1041.44 536.059 1041.44 Q532.911 1041.44 531.059 1043.61 Q529.23 1045.77 529.23 1049.49 Q529.23 1053.24 531.059 1055.4 Q532.911 1057.55 536.059 1057.55 Z" fill="#000000" fill-rule="nonzero" fill-opacity="1" /><path clip-path="url(#clip430)" d="M560.804 1068.98 L577.124 1068.98 L577.124 1072.92 L555.179 1072.92 L555.179 1068.98 Q557.841 1066.23 562.425 1061.6 Q567.031 1056.95 568.212 1055.61 Q570.457 1053.08 571.337 1051.35 Q572.24 1049.59 572.24 1047.9 Q572.24 1045.14 570.295 1043.41 Q568.374 1041.67 565.272 1041.67 Q563.073 1041.67 560.619 1042.43 Q558.189 1043.2 555.411 1044.75 L555.411 1040.03 Q558.235 1038.89 560.689 1038.31 Q563.142 1037.73 565.179 1037.73 Q570.55 1037.73 573.744 1040.42 Q576.939 1043.11 576.939 1047.6 Q576.939 1049.73 576.128 1051.65 Q575.341 1053.54 573.235 1056.14 Q572.656 1056.81 569.554 1060.03 Q566.453 1063.22 560.804 1068.98 Z" fill="#000000" fill-rule="nonzero" fill-opacity="1" /><path clip-path="url(#clip430)" d="M640.417 1068.98 L648.056 1068.98 L648.056 1042.62 L639.746 1044.29 L639.746 1040.03 L648.01 1038.36 L652.686 1038.36 L652.686 1068.98 L660.325 1068.98 L660.325 1072.92 L640.417 1072.92 L640.417 1068.98 Z" fill="#000000" fill-rule="nonzero" fill-opacity="1" /><path clip-path="url(#clip430)" d="M679.769 1056.51 Q676.436 1056.51 674.514 1058.29 Q672.616 1060.07 672.616 1063.2 Q672.616 1066.32 674.514 1068.11 Q676.436 1069.89 679.769 1069.89 Q683.102 1069.89 685.024 1068.11 Q686.945 1066.3 686.945 1063.2 Q686.945 1060.07 685.024 1058.29 Q683.125 1056.51 679.769 1056.51 M675.093 1054.52 Q672.084 1053.78 670.394 1051.72 Q668.727 1049.66 668.727 1046.69 Q668.727 1042.55 671.667 1040.14 Q674.63 1037.73 679.769 1037.73 Q684.931 1037.73 687.871 1040.14 Q690.811 1042.55 690.811 1046.69 Q690.811 1049.66 689.121 1051.72 Q687.454 1053.78 684.468 1054.52 Q687.848 1055.3 689.723 1057.6 Q691.621 1059.89 691.621 1063.2 Q691.621 1068.22 688.542 1070.91 Q685.487 1073.59 679.769 1073.59 Q674.051 1073.59 670.973 1070.91 Q667.917 1068.22 667.917 1063.2 Q667.917 1059.89 669.815 1057.6 Q671.714 1055.3 675.093 1054.52 M673.38 1047.13 Q673.38 1049.82 675.047 1051.32 Q676.737 1052.83 679.769 1052.83 Q682.778 1052.83 684.468 1051.32 Q686.181 1049.82 686.181 1047.13 Q686.181 1044.45 684.468 1042.94 Q682.778 1041.44 679.769 1041.44 Q676.737 1041.44 675.047 1042.94 Q673.38 1044.45 673.38 1047.13 Z" fill="#000000" fill-rule="nonzero" fill-opacity="1" /><path clip-path="url(#clip430)" d="M700.07 1072.2 L700.07 1067.94 Q701.829 1068.78 703.635 1069.22 Q705.44 1069.66 707.176 1069.66 Q711.806 1069.66 714.236 1066.55 Q716.69 1063.43 717.037 1057.09 Q715.695 1059.08 713.635 1060.14 Q711.574 1061.21 709.074 1061.21 Q703.889 1061.21 700.857 1058.08 Q697.848 1054.93 697.848 1049.49 Q697.848 1044.17 700.996 1040.95 Q704.144 1037.73 709.375 1037.73 Q715.371 1037.73 718.519 1042.34 Q721.69 1046.92 721.69 1055.67 Q721.69 1063.85 717.801 1068.73 Q713.936 1073.59 707.385 1073.59 Q705.625 1073.59 703.82 1073.24 Q702.014 1072.9 700.07 1072.2 M709.375 1057.55 Q712.523 1057.55 714.352 1055.4 Q716.204 1053.24 716.204 1049.49 Q716.204 1045.77 714.352 1043.61 Q712.523 1041.44 709.375 1041.44 Q706.227 1041.44 704.375 1043.61 Q702.547 1045.77 702.547 1049.49 Q702.547 1053.24 704.375 1055.4 Q706.227 1057.55 709.375 1057.55 Z" fill="#000000" fill-rule="nonzero" fill-opacity="1" /><path clip-path="url(#clip430)" d="M740.671 1053.78 Q737.523 1053.78 735.672 1055.93 Q733.843 1058.08 733.843 1061.83 Q733.843 1065.56 735.672 1067.73 Q737.523 1069.89 740.671 1069.89 Q743.82 1069.89 745.648 1067.73 Q747.5 1065.56 747.5 1061.83 Q747.5 1058.08 745.648 1055.93 Q743.82 1053.78 740.671 1053.78 M749.954 1039.12 L749.954 1043.38 Q748.195 1042.55 746.389 1042.11 Q744.607 1041.67 742.847 1041.67 Q738.218 1041.67 735.764 1044.79 Q733.334 1047.92 732.986 1054.24 Q734.352 1052.23 736.412 1051.16 Q738.472 1050.07 740.949 1050.07 Q746.158 1050.07 749.167 1053.24 Q752.199 1056.39 752.199 1061.83 Q752.199 1067.16 749.051 1070.37 Q745.903 1073.59 740.671 1073.59 Q734.676 1073.59 731.505 1069.01 Q728.334 1064.4 728.334 1055.67 Q728.334 1047.48 732.222 1042.62 Q736.111 1037.73 742.662 1037.73 Q744.421 1037.73 746.204 1038.08 Q748.009 1038.43 749.954 1039.12 Z" fill="#000000" fill-rule="nonzero" fill-opacity="1" /><path clip-path="url(#clip430)" d="M814.694 1068.98 L822.333 1068.98 L822.333 1042.62 L814.023 1044.29 L814.023 1040.03 L822.287 1038.36 L826.963 1038.36 L826.963 1068.98 L834.602 1068.98 L834.602 1072.92 L814.694 1072.92 L814.694 1068.98 Z" fill="#000000" fill-rule="nonzero" fill-opacity="1" /><path clip-path="url(#clip430)" d="M844.185 1072.2 L844.185 1067.94 Q845.944 1068.78 847.75 1069.22 Q849.555 1069.66 851.291 1069.66 Q855.921 1069.66 858.351 1066.55 Q860.805 1063.43 861.152 1057.09 Q859.81 1059.08 857.75 1060.14 Q855.689 1061.21 853.189 1061.21 Q848.004 1061.21 844.972 1058.08 Q841.963 1054.93 841.963 1049.49 Q841.963 1044.17 845.111 1040.95 Q848.259 1037.73 853.49 1037.73 Q859.486 1037.73 862.634 1042.34 Q865.805 1046.92 865.805 1055.67 Q865.805 1063.85 861.916 1068.73 Q858.05 1073.59 851.5 1073.59 Q849.74 1073.59 847.935 1073.24 Q846.129 1072.9 844.185 1072.2 M853.49 1057.55 Q856.638 1057.55 858.467 1055.4 Q860.319 1053.24 860.319 1049.49 Q860.319 1045.77 858.467 1043.61 Q856.638 1041.44 853.49 1041.44 Q850.342 1041.44 848.49 1043.61 Q846.662 1045.77 846.662 1049.49 Q846.662 1053.24 848.49 1055.4 Q850.342 1057.55 853.49 1057.55 Z" fill="#000000" fill-rule="nonzero" fill-opacity="1" /><path clip-path="url(#clip430)" d="M884.208 1041.44 Q880.597 1041.44 878.768 1045 Q876.962 1048.54 876.962 1055.67 Q876.962 1062.78 878.768 1066.35 Q880.597 1069.89 884.208 1069.89 Q887.842 1069.89 889.648 1066.35 Q891.476 1062.78 891.476 1055.67 Q891.476 1048.54 889.648 1045 Q887.842 1041.44 884.208 1041.44 M884.208 1037.73 Q890.018 1037.73 893.073 1042.34 Q896.152 1046.92 896.152 1055.67 Q896.152 1064.4 893.073 1069.01 Q890.018 1073.59 884.208 1073.59 Q878.398 1073.59 875.319 1069.01 Q872.263 1064.4 872.263 1055.67 Q872.263 1046.92 875.319 1042.34 Q878.398 1037.73 884.208 1037.73 Z" fill="#000000" fill-rule="nonzero" fill-opacity="1" /><path clip-path="url(#clip430)" d="M914.37 1041.44 Q910.759 1041.44 908.93 1045 Q907.124 1048.54 907.124 1055.67 Q907.124 1062.78 908.93 1066.35 Q910.759 1069.89 914.37 1069.89 Q918.004 1069.89 919.809 1066.35 Q921.638 1062.78 921.638 1055.67 Q921.638 1048.54 919.809 1045 Q918.004 1041.44 914.37 1041.44 M914.37 1037.73 Q920.18 1037.73 923.235 1042.34 Q926.314 1046.92 926.314 1055.67 Q926.314 1064.4 923.235 1069.01 Q920.18 1073.59 914.37 1073.59 Q908.559 1073.59 905.481 1069.01 Q902.425 1064.4 902.425 1055.67 Q902.425 1046.92 905.481 1042.34 Q908.559 1037.73 914.37 1037.73 Z" fill="#000000" fill-rule="nonzero" fill-opacity="1" /><path clip-path="url(#clip430)" d="M988.647 1068.98 L996.286 1068.98 L996.286 1042.62 L987.976 1044.29 L987.976 1040.03 L996.24 1038.36 L1000.92 1038.36 L1000.92 1068.98 L1008.55 1068.98 L1008.55 1072.92 L988.647 1072.92 L988.647 1068.98 Z" fill="#000000" fill-rule="nonzero" fill-opacity="1" /><path clip-path="url(#clip430)" d="M1018.14 1072.2 L1018.14 1067.94 Q1019.9 1068.78 1021.7 1069.22 Q1023.51 1069.66 1025.24 1069.66 Q1029.87 1069.66 1032.3 1066.55 Q1034.76 1063.43 1035.11 1057.09 Q1033.76 1059.08 1031.7 1060.14 Q1029.64 1061.21 1027.14 1061.21 Q1021.96 1061.21 1018.92 1058.08 Q1015.92 1054.93 1015.92 1049.49 Q1015.92 1044.17 1019.06 1040.95 Q1022.21 1037.73 1027.44 1037.73 Q1033.44 1037.73 1036.59 1042.34 Q1039.76 1046.92 1039.76 1055.67 Q1039.76 1063.85 1035.87 1068.73 Q1032 1073.59 1025.45 1073.59 Q1023.69 1073.59 1021.89 1073.24 Q1020.08 1072.9 1018.14 1072.2 M1027.44 1057.55 Q1030.59 1057.55 1032.42 1055.4 Q1034.27 1053.24 1034.27 1049.49 Q1034.27 1045.77 1032.42 1043.61 Q1030.59 1041.44 1027.44 1041.44 Q1024.29 1041.44 1022.44 1043.61 Q1020.61 1045.77 1020.61 1049.49 Q1020.61 1053.24 1022.44 1055.4 Q1024.29 1057.55 1027.44 1057.55 Z" fill="#000000" fill-rule="nonzero" fill-opacity="1" /><path clip-path="url(#clip430)" d="M1058.16 1041.44 Q1054.55 1041.44 1052.72 1045 Q1050.92 1048.54 1050.92 1055.67 Q1050.92 1062.78 1052.72 1066.35 Q1054.55 1069.89 1058.16 1069.89 Q1061.79 1069.89 1063.6 1066.35 Q1065.43 1062.78 1065.43 1055.67 Q1065.43 1048.54 1063.6 1045 Q1061.79 1041.44 1058.16 1041.44 M1058.16 1037.73 Q1063.97 1037.73 1067.03 1042.34 Q1070.1 1046.92 1070.1 1055.67 Q1070.1 1064.4 1067.03 1069.01 Q1063.97 1073.59 1058.16 1073.59 Q1052.35 1073.59 1049.27 1069.01 Q1046.22 1064.4 1046.22 1055.67 Q1046.22 1046.92 1049.27 1042.34 Q1052.35 1037.73 1058.16 1037.73 Z" fill="#000000" fill-rule="nonzero" fill-opacity="1" /><path clip-path="url(#clip430)" d="M1091.17 1042.43 L1079.36 1060.88 L1091.17 1060.88 L1091.17 1042.43 M1089.94 1038.36 L1095.82 1038.36 L1095.82 1060.88 L1100.75 1060.88 L1100.75 1064.77 L1095.82 1064.77 L1095.82 1072.92 L1091.17 1072.92 L1091.17 1064.77 L1075.57 1064.77 L1075.57 1060.26 L1089.94 1038.36 Z" fill="#000000" fill-rule="nonzero" fill-opacity="1" /><path clip-path="url(#clip430)" d="M1163.13 1068.98 L1170.77 1068.98 L1170.77 1042.62 L1162.46 1044.29 L1162.46 1040.03 L1170.72 1038.36 L1175.4 1038.36 L1175.4 1068.98 L1183.04 1068.98 L1183.04 1072.92 L1163.13 1072.92 L1163.13 1068.98 Z" fill="#000000" fill-rule="nonzero" fill-opacity="1" /><path clip-path="url(#clip430)" d="M1192.62 1072.2 L1192.62 1067.94 Q1194.38 1068.78 1196.19 1069.22 Q1197.99 1069.66 1199.73 1069.66 Q1204.36 1069.66 1206.79 1066.55 Q1209.24 1063.43 1209.59 1057.09 Q1208.25 1059.08 1206.19 1060.14 Q1204.13 1061.21 1201.63 1061.21 Q1196.44 1061.21 1193.41 1058.08 Q1190.4 1054.93 1190.4 1049.49 Q1190.4 1044.17 1193.55 1040.95 Q1196.7 1037.73 1201.93 1037.73 Q1207.92 1037.73 1211.07 1042.34 Q1214.24 1046.92 1214.24 1055.67 Q1214.24 1063.85 1210.35 1068.73 Q1206.49 1073.59 1199.94 1073.59 Q1198.18 1073.59 1196.37 1073.24 Q1194.57 1072.9 1192.62 1072.2 M1201.93 1057.55 Q1205.08 1057.55 1206.91 1055.4 Q1208.76 1053.24 1208.76 1049.49 Q1208.76 1045.77 1206.91 1043.61 Q1205.08 1041.44 1201.93 1041.44 Q1198.78 1041.44 1196.93 1043.61 Q1195.1 1045.77 1195.1 1049.49 Q1195.1 1053.24 1196.93 1055.4 Q1198.78 1057.55 1201.93 1057.55 Z" fill="#000000" fill-rule="nonzero" fill-opacity="1" /><path clip-path="url(#clip430)" d="M1232.65 1041.44 Q1229.03 1041.44 1227.21 1045 Q1225.4 1048.54 1225.4 1055.67 Q1225.4 1062.78 1227.21 1066.35 Q1229.03 1069.89 1232.65 1069.89 Q1236.28 1069.89 1238.09 1066.35 Q1239.91 1062.78 1239.91 1055.67 Q1239.91 1048.54 1238.09 1045 Q1236.28 1041.44 1232.65 1041.44 M1232.65 1037.73 Q1238.46 1037.73 1241.51 1042.34 Q1244.59 1046.92 1244.59 1055.67 Q1244.59 1064.4 1241.51 1069.01 Q1238.46 1073.59 1232.65 1073.59 Q1226.84 1073.59 1223.76 1069.01 Q1220.7 1064.4 1220.7 1055.67 Q1220.7 1046.92 1223.76 1042.34 Q1226.84 1037.73 1232.65 1037.73 Z" fill="#000000" fill-rule="nonzero" fill-opacity="1" /><path clip-path="url(#clip430)" d="M1262.81 1056.51 Q1259.47 1056.51 1257.55 1058.29 Q1255.65 1060.07 1255.65 1063.2 Q1255.65 1066.32 1257.55 1068.11 Q1259.47 1069.89 1262.81 1069.89 Q1266.14 1069.89 1268.06 1068.11 Q1269.98 1066.3 1269.98 1063.2 Q1269.98 1060.07 1268.06 1058.29 Q1266.16 1056.51 1262.81 1056.51 M1258.13 1054.52 Q1255.12 1053.78 1253.43 1051.72 Q1251.77 1049.66 1251.77 1046.69 Q1251.77 1042.55 1254.71 1040.14 Q1257.67 1037.73 1262.81 1037.73 Q1267.97 1037.73 1270.91 1040.14 Q1273.85 1042.55 1273.85 1046.69 Q1273.85 1049.66 1272.16 1051.72 Q1270.49 1053.78 1267.51 1054.52 Q1270.89 1055.3 1272.76 1057.6 Q1274.66 1059.89 1274.66 1063.2 Q1274.66 1068.22 1271.58 1070.91 Q1268.53 1073.59 1262.81 1073.59 Q1257.09 1073.59 1254.01 1070.91 Q1250.96 1068.22 1250.96 1063.2 Q1250.96 1059.89 1252.85 1057.6 Q1254.75 1055.3 1258.13 1054.52 M1256.42 1047.13 Q1256.42 1049.82 1258.09 1051.32 Q1259.78 1052.83 1262.81 1052.83 Q1265.82 1052.83 1267.51 1051.32 Q1269.22 1049.82 1269.22 1047.13 Q1269.22 1044.45 1267.51 1042.94 Q1265.82 1041.44 1262.81 1041.44 Q1259.78 1041.44 1258.09 1042.94 Q1256.42 1044.45 1256.42 1047.13 Z" fill="#000000" fill-rule="nonzero" fill-opacity="1" /><path clip-path="url(#clip430)" d="M1338.08 1068.98 L1345.72 1068.98 L1345.72 1042.62 L1337.41 1044.29 L1337.41 1040.03 L1345.67 1038.36 L1350.35 1038.36 L1350.35 1068.98 L1357.99 1068.98 L1357.99 1072.92 L1338.08 1072.92 L1338.08 1068.98 Z" fill="#000000" fill-rule="nonzero" fill-opacity="1" /><path clip-path="url(#clip430)" d="M1367.57 1072.2 L1367.57 1067.94 Q1369.33 1068.78 1371.14 1069.22 Q1372.94 1069.66 1374.68 1069.66 Q1379.31 1069.66 1381.74 1066.55 Q1384.19 1063.43 1384.54 1057.09 Q1383.2 1059.08 1381.14 1060.14 Q1379.08 1061.21 1376.58 1061.21 Q1371.39 1061.21 1368.36 1058.08 Q1365.35 1054.93 1365.35 1049.49 Q1365.35 1044.17 1368.5 1040.95 Q1371.64 1037.73 1376.88 1037.73 Q1382.87 1037.73 1386.02 1042.34 Q1389.19 1046.92 1389.19 1055.67 Q1389.19 1063.85 1385.3 1068.73 Q1381.44 1073.59 1374.89 1073.59 Q1373.13 1073.59 1371.32 1073.24 Q1369.52 1072.9 1367.57 1072.2 M1376.88 1057.55 Q1380.02 1057.55 1381.85 1055.4 Q1383.71 1053.24 1383.71 1049.49 Q1383.71 1045.77 1381.85 1043.61 Q1380.02 1041.44 1376.88 1041.44 Q1373.73 1041.44 1371.88 1043.61 Q1370.05 1045.77 1370.05 1049.49 Q1370.05 1053.24 1371.88 1055.4 Q1373.73 1057.55 1376.88 1057.55 Z" fill="#000000" fill-rule="nonzero" fill-opacity="1" /><path clip-path="url(#clip430)" d="M1398.4 1068.98 L1406.04 1068.98 L1406.04 1042.62 L1397.73 1044.29 L1397.73 1040.03 L1406 1038.36 L1410.67 1038.36 L1410.67 1068.98 L1418.31 1068.98 L1418.31 1072.92 L1398.4 1072.92 L1398.4 1068.98 Z" fill="#000000" fill-rule="nonzero" fill-opacity="1" /><path clip-path="url(#clip430)" d="M1431.78 1068.98 L1448.1 1068.98 L1448.1 1072.92 L1426.16 1072.92 L1426.16 1068.98 Q1428.82 1066.23 1433.4 1061.6 Q1438.01 1056.95 1439.19 1055.61 Q1441.44 1053.08 1442.32 1051.35 Q1443.22 1049.59 1443.22 1047.9 Q1443.22 1045.14 1441.27 1043.41 Q1439.35 1041.67 1436.25 1041.67 Q1434.05 1041.67 1431.6 1042.43 Q1429.17 1043.2 1426.39 1044.75 L1426.39 1040.03 Q1429.21 1038.89 1431.67 1038.31 Q1434.12 1037.73 1436.16 1037.73 Q1441.53 1037.73 1444.72 1040.42 Q1447.92 1043.11 1447.92 1047.6 Q1447.92 1049.73 1447.11 1051.65 Q1446.32 1053.54 1444.21 1056.14 Q1443.64 1056.81 1440.53 1060.03 Q1437.43 1063.22 1431.78 1068.98 Z" fill="#000000" fill-rule="nonzero" fill-opacity="1" /><path clip-path="url(#clip430)" d="M672.148 1104.01 L672.148 1114.14 L684.211 1114.14 L684.211 1118.69 L672.148 1118.69 L672.148 1138.04 Q672.148 1142.4 673.326 1143.64 Q674.535 1144.88 678.196 1144.88 L684.211 1144.88 L684.211 1149.78 L678.196 1149.78 Q671.416 1149.78 668.838 1147.27 Q666.26 1144.72 666.26 1138.04 L666.26 1118.69 L661.963 1118.69 L661.963 1114.14 L666.26 1114.14 L666.26 1104.01 L672.148 1104.01 Z" fill="#000000" fill-rule="nonzero" fill-opacity="1" /><path clip-path="url(#clip430)" d="M714.703 1127.5 Q716.772 1128.2 718.713 1130.5 Q720.687 1132.79 722.66 1136.8 L729.185 1149.78 L722.278 1149.78 L716.199 1137.59 Q713.843 1132.82 711.615 1131.26 Q709.419 1129.7 705.6 1129.7 L698.598 1129.7 L698.598 1149.78 L692.168 1149.78 L692.168 1102.26 L706.682 1102.26 Q714.83 1102.26 718.841 1105.67 Q722.851 1109.08 722.851 1115.95 Q722.851 1120.44 720.75 1123.4 Q718.681 1126.36 714.703 1127.5 M698.598 1107.55 L698.598 1124.42 L706.682 1124.42 Q711.329 1124.42 713.684 1122.28 Q716.071 1120.12 716.071 1115.95 Q716.071 1111.78 713.684 1109.68 Q711.329 1107.55 706.682 1107.55 L698.598 1107.55 Z" fill="#000000" fill-rule="nonzero" fill-opacity="1" /><path clip-path="url(#clip430)" d="M739.147 1144.37 L749.651 1144.37 L749.651 1108.12 L738.224 1110.41 L738.224 1104.56 L749.587 1102.26 L756.016 1102.26 L756.016 1144.37 L766.52 1144.37 L766.52 1149.78 L739.147 1149.78 L739.147 1144.37 Z" fill="#000000" fill-rule="nonzero" fill-opacity="1" /><path clip-path="url(#clip430)" d="M799.399 1114.14 L805.255 1114.14 L805.255 1149.78 L799.399 1149.78 L799.399 1114.14 M799.399 1100.26 L805.255 1100.26 L805.255 1107.67 L799.399 1107.67 L799.399 1100.26 Z" fill="#000000" fill-rule="nonzero" fill-opacity="1" /><path clip-path="url(#clip430)" d="M847.141 1128.27 L847.141 1149.78 L841.285 1149.78 L841.285 1128.46 Q841.285 1123.4 839.312 1120.88 Q837.338 1118.37 833.391 1118.37 Q828.649 1118.37 825.912 1121.39 Q823.175 1124.42 823.175 1129.64 L823.175 1149.78 L817.286 1149.78 L817.286 1114.14 L823.175 1114.14 L823.175 1119.67 Q825.275 1116.46 828.108 1114.87 Q830.972 1113.28 834.696 1113.28 Q840.839 1113.28 843.99 1117.1 Q847.141 1120.88 847.141 1128.27 Z" fill="#000000" fill-rule="nonzero" fill-opacity="1" /><path clip-path="url(#clip430)" d="M902.268 1115.19 L902.268 1120.72 Q899.786 1119.45 897.112 1118.81 Q894.439 1118.18 891.574 1118.18 Q887.214 1118.18 885.017 1119.51 Q882.853 1120.85 882.853 1123.53 Q882.853 1125.56 884.413 1126.74 Q885.972 1127.89 890.683 1128.94 L892.688 1129.38 Q898.926 1130.72 901.536 1133.17 Q904.178 1135.59 904.178 1139.95 Q904.178 1144.91 900.231 1147.81 Q896.316 1150.71 889.442 1150.71 Q886.577 1150.71 883.458 1150.13 Q880.37 1149.59 876.933 1148.48 L876.933 1142.43 Q880.179 1144.12 883.33 1144.98 Q886.481 1145.81 889.569 1145.81 Q893.707 1145.81 895.935 1144.4 Q898.163 1142.97 898.163 1140.39 Q898.163 1138.01 896.539 1136.73 Q894.948 1135.46 889.505 1134.28 L887.468 1133.81 Q882.025 1132.66 879.606 1130.3 Q877.188 1127.92 877.188 1123.78 Q877.188 1118.75 880.752 1116.01 Q884.317 1113.28 890.874 1113.28 Q894.12 1113.28 896.985 1113.75 Q899.849 1114.23 902.268 1115.19 Z" fill="#000000" fill-rule="nonzero" fill-opacity="1" /><polyline clip-path="url(#clip432)" style="stroke:#000000; stroke-linecap:round; stroke-linejoin:round; stroke-width:2; stroke-opacity:0.1; fill:none" points="173.385,1016.92 1392.76,1016.92 "/>
<polyline clip-path="url(#clip432)" style="stroke:#000000; stroke-linecap:round; stroke-linejoin:round; stroke-width:2; stroke-opacity:0.1; fill:none" points="173.385,774.501 1392.76,774.501 "/>
<polyline clip-path="url(#clip432)" style="stroke:#000000; stroke-linecap:round; stroke-linejoin:round; stroke-width:2; stroke-opacity:0.1; fill:none" points="173.385,532.082 1392.76,532.082 "/>
<polyline clip-path="url(#clip432)" style="stroke:#000000; stroke-linecap:round; stroke-linejoin:round; stroke-width:2; stroke-opacity:0.1; fill:none" points="173.385,289.663 1392.76,289.663 "/>
<polyline clip-path="url(#clip432)" style="stroke:#000000; stroke-linecap:round; stroke-linejoin:round; stroke-width:2; stroke-opacity:0.1; fill:none" points="173.385,47.2441 1392.76,47.2441 "/>
<polyline clip-path="url(#clip430)" style="stroke:#000000; stroke-linecap:round; stroke-linejoin:round; stroke-width:4; stroke-opacity:1; fill:none" points="173.385,1016.92 173.385,47.2441 "/>
<polyline clip-path="url(#clip430)" style="stroke:#000000; stroke-linecap:round; stroke-linejoin:round; stroke-width:4; stroke-opacity:1; fill:none" points="173.385,1016.92 190.091,1016.92 "/>
<polyline clip-path="url(#clip430)" style="stroke:#000000; stroke-linecap:round; stroke-linejoin:round; stroke-width:4; stroke-opacity:1; fill:none" points="173.385,774.501 190.091,774.501 "/>
<polyline clip-path="url(#clip430)" style="stroke:#000000; stroke-linecap:round; stroke-linejoin:round; stroke-width:4; stroke-opacity:1; fill:none" points="173.385,532.082 190.091,532.082 "/>
<polyline clip-path="url(#clip430)" style="stroke:#000000; stroke-linecap:round; stroke-linejoin:round; stroke-width:4; stroke-opacity:1; fill:none" points="173.385,289.663 190.091,289.663 "/>
<polyline clip-path="url(#clip430)" style="stroke:#000000; stroke-linecap:round; stroke-linejoin:round; stroke-width:4; stroke-opacity:1; fill:none" points="173.385,47.2441 190.091,47.2441 "/>
<path clip-path="url(#clip430)" d="M137.441 1002.72 Q133.83 1002.72 132.001 1006.28 Q130.195 1009.82 130.195 1016.95 Q130.195 1024.06 132.001 1027.63 Q133.83 1031.17 137.441 1031.17 Q141.075 1031.17 142.881 1027.63 Q144.709 1024.06 144.709 1016.95 Q144.709 1009.82 142.881 1006.28 Q141.075 1002.72 137.441 1002.72 M137.441 999.015 Q143.251 999.015 146.307 1003.62 Q149.385 1008.2 149.385 1016.95 Q149.385 1025.68 146.307 1030.29 Q143.251 1034.87 137.441 1034.87 Q131.631 1034.87 128.552 1030.29 Q125.496 1025.68 125.496 1016.95 Q125.496 1008.2 128.552 1003.62 Q131.631 999.015 137.441 999.015 Z" fill="#000000" fill-rule="nonzero" fill-opacity="1" /><path clip-path="url(#clip430)" d="M129.478 787.846 L137.117 787.846 L137.117 761.48 L128.807 763.147 L128.807 758.888 L137.07 757.221 L141.746 757.221 L141.746 787.846 L149.385 787.846 L149.385 791.781 L129.478 791.781 L129.478 787.846 Z" fill="#000000" fill-rule="nonzero" fill-opacity="1" /><path clip-path="url(#clip430)" d="M133.066 545.427 L149.385 545.427 L149.385 549.362 L127.441 549.362 L127.441 545.427 Q130.103 542.672 134.686 538.043 Q139.293 533.39 140.473 532.047 Q142.719 529.524 143.598 527.788 Q144.501 526.029 144.501 524.339 Q144.501 521.584 142.557 519.848 Q140.635 518.112 137.533 518.112 Q135.334 518.112 132.881 518.876 Q130.45 519.64 127.672 521.191 L127.672 516.469 Q130.496 515.334 132.95 514.756 Q135.404 514.177 137.441 514.177 Q142.811 514.177 146.006 516.862 Q149.2 519.547 149.2 524.038 Q149.2 526.168 148.39 528.089 Q147.603 529.987 145.496 532.58 Q144.918 533.251 141.816 536.469 Q138.714 539.663 133.066 545.427 Z" fill="#000000" fill-rule="nonzero" fill-opacity="1" /><path clip-path="url(#clip430)" d="M142.256 288.309 Q145.612 289.026 147.487 291.295 Q149.385 293.563 149.385 296.897 Q149.385 302.013 145.867 304.813 Q142.348 307.614 135.867 307.614 Q133.691 307.614 131.376 307.175 Q129.084 306.758 126.631 305.901 L126.631 301.388 Q128.575 302.522 130.89 303.1 Q133.205 303.679 135.728 303.679 Q140.126 303.679 142.418 301.943 Q144.732 300.207 144.732 296.897 Q144.732 293.841 142.58 292.128 Q140.45 290.392 136.631 290.392 L132.603 290.392 L132.603 286.55 L136.816 286.55 Q140.265 286.55 142.094 285.184 Q143.922 283.795 143.922 281.202 Q143.922 278.54 142.024 277.128 Q140.149 275.693 136.631 275.693 Q134.709 275.693 132.51 276.11 Q130.311 276.527 127.672 277.406 L127.672 273.24 Q130.334 272.499 132.649 272.128 Q134.987 271.758 137.047 271.758 Q142.371 271.758 145.473 274.189 Q148.575 276.596 148.575 280.716 Q148.575 283.587 146.932 285.577 Q145.288 287.545 142.256 288.309 Z" fill="#000000" fill-rule="nonzero" fill-opacity="1" /><path clip-path="url(#clip430)" d="M139.802 34.0381 L127.996 52.4871 L139.802 52.4871 L139.802 34.0381 M138.575 29.9641 L144.455 29.9641 L144.455 52.4871 L149.385 52.4871 L149.385 56.376 L144.455 56.376 L144.455 64.5241 L139.802 64.5241 L139.802 56.376 L124.2 56.376 L124.2 51.8621 L138.575 29.9641 Z" fill="#000000" fill-rule="nonzero" fill-opacity="1" /><path clip-path="url(#clip430)" d="M40.1747 643.004 L50.2962 643.004 L50.2962 630.941 L54.8477 630.941 L54.8477 643.004 L74.1994 643.004 Q78.5599 643.004 79.8013 641.827 Q81.0426 640.617 81.0426 636.957 L81.0426 630.941 L85.9442 630.941 L85.9442 636.957 Q85.9442 643.736 83.4297 646.315 Q80.8834 648.893 74.1994 648.893 L54.8477 648.893 L54.8477 653.19 L50.2962 653.19 L50.2962 648.893 L40.1747 648.893 L40.1747 643.004 Z" fill="#000000" fill-rule="nonzero" fill-opacity="1" /><path clip-path="url(#clip430)" d="M63.6642 600.45 Q64.3644 598.381 66.6561 596.439 Q68.9477 594.466 72.9581 592.493 L85.9442 585.968 L85.9442 592.874 L73.7538 598.954 Q68.9795 601.309 67.42 603.537 Q65.8604 605.733 65.8604 609.553 L65.8604 616.555 L85.9442 616.555 L85.9442 622.984 L38.4242 622.984 L38.4242 608.47 Q38.4242 600.322 41.8298 596.312 Q45.2355 592.302 52.1104 592.302 Q56.5982 592.302 59.5583 594.402 Q62.5184 596.471 63.6642 600.45 M43.7077 616.555 L60.5768 616.555 L60.5768 608.47 Q60.5768 603.823 58.4443 601.468 Q56.28 599.081 52.1104 599.081 Q47.9409 599.081 45.8402 601.468 Q43.7077 603.823 43.7077 608.47 L43.7077 616.555 Z" fill="#000000" fill-rule="nonzero" fill-opacity="1" /><path clip-path="url(#clip430)" d="M80.5333 571.581 L80.5333 549.142 L85.9442 549.142 L85.9442 579.316 L80.5333 579.316 Q76.7457 575.655 70.38 569.353 Q63.9825 563.019 62.1364 561.396 Q58.6671 558.309 56.28 557.099 Q53.861 555.858 51.5375 555.858 Q47.7499 555.858 45.3628 558.531 Q42.9756 561.173 42.9756 565.438 Q42.9756 568.462 44.026 571.836 Q45.0763 575.178 47.2088 578.997 L40.7158 578.997 Q39.1562 575.114 38.3605 571.74 Q37.5648 568.366 37.5648 565.566 Q37.5648 558.181 41.2569 553.789 Q44.949 549.397 51.1237 549.397 Q54.052 549.397 56.6937 550.511 Q59.3037 551.593 62.8685 554.489 Q63.7915 555.285 68.2157 559.55 Q72.608 563.815 80.5333 571.581 Z" fill="#000000" fill-rule="nonzero" fill-opacity="1" /><path clip-path="url(#clip430)" d="M50.2962 515.754 L50.2962 509.897 L85.9442 509.897 L85.9442 515.754 L50.2962 515.754 M36.419 515.754 L36.419 509.897 L43.835 509.897 L43.835 515.754 L36.419 515.754 Z" fill="#000000" fill-rule="nonzero" fill-opacity="1" /><path clip-path="url(#clip430)" d="M64.4281 468.011 L85.9442 468.011 L85.9442 473.868 L64.619 473.868 Q59.5583 473.868 57.0438 475.841 Q54.5294 477.814 54.5294 481.761 Q54.5294 486.504 57.5531 489.241 Q60.5768 491.978 65.7967 491.978 L85.9442 491.978 L85.9442 497.866 L50.2962 497.866 L50.2962 491.978 L55.8344 491.978 Q52.6197 489.877 51.0283 487.045 Q49.4368 484.18 49.4368 480.456 Q49.4368 474.313 53.2563 471.162 Q57.0438 468.011 64.4281 468.011 Z" fill="#000000" fill-rule="nonzero" fill-opacity="1" /><path clip-path="url(#clip430)" d="M51.3465 412.884 L56.8847 412.884 Q55.6116 415.367 54.975 418.04 Q54.3384 420.714 54.3384 423.578 Q54.3384 427.939 55.6752 430.135 Q57.012 432.3 59.6856 432.3 Q61.7226 432.3 62.9003 430.74 Q64.0461 429.18 65.0965 424.47 L65.5421 422.465 Q66.8789 416.226 69.3297 413.616 Q71.7486 410.974 76.1091 410.974 Q81.0744 410.974 83.9708 414.921 Q86.8672 418.836 86.8672 425.711 Q86.8672 428.576 86.2943 431.695 Q85.7532 434.782 84.6392 438.22 L78.5918 438.22 Q80.2787 434.973 81.138 431.822 Q81.9656 428.671 81.9656 425.584 Q81.9656 421.446 80.5651 419.218 Q79.1329 416.99 76.5547 416.99 Q74.1676 416.99 72.8945 418.613 Q71.6213 420.205 70.4437 425.647 L69.9662 427.684 Q68.8204 433.127 66.4651 435.546 Q64.078 437.965 59.9402 437.965 Q54.9113 437.965 52.1741 434.4 Q49.4368 430.835 49.4368 424.279 Q49.4368 421.032 49.9143 418.168 Q50.3917 415.303 51.3465 412.884 Z" fill="#000000" fill-rule="nonzero" fill-opacity="1" /><polyline clip-path="url(#clip432)" style="stroke:#130a34; stroke-linecap:round; stroke-linejoin:round; stroke-width:4; stroke-opacity:1; fill:none" points="469.52,551.475 521.777,553.019 532.03,553.9 571.655,556.324 660.896,558.748 695.973,559.474 870.168,559.291 903.497,558.748 1000.97,556.324 1029.32,553.9 1036.3,551.475 1035.56,549.051 1030.89,546.627 1022.3,544.203 1006.7,541.779 975.146,539.355 902.278,536.93 870.168,536.166 771.311,534.506 695.973,533.431 527.611,534.506 521.777,534.548 441.277,536.93 407.966,539.355 395.546,541.779 394.328,544.203 402.365,546.627 423.247,549.051 469.52,551.475 "/>
<polyline clip-path="url(#clip432)" style="stroke:#390962; stroke-linecap:round; stroke-linejoin:round; stroke-width:4; stroke-opacity:1; fill:none" points="538.888,551.475 575.356,553.9 648.246,556.324 695.973,557.399 870.168,556.913 898.311,556.324 972.711,553.9 998.463,551.475 1005.12,549.051 1001.55,546.627 988.524,544.203 960.36,541.779 899.471,539.355 870.168,538.551 787.938,536.93 695.973,535.529 564.497,536.93 521.777,537.783 482.679,539.355 454.55,541.779 449.624,544.203 463.802,546.627 504.108,549.051 521.777,549.71 538.888,551.475 "/>
<polyline clip-path="url(#clip432)" style="stroke:#5f126e; stroke-linecap:round; stroke-linejoin:round; stroke-width:4; stroke-opacity:1; fill:none" points="568.123,551.475 618.682,553.9 695.973,555.901 870.168,555.179 916.102,553.9 960.623,551.475 974.673,549.051 972.21,546.627 954.747,544.203 914.015,541.779 870.168,540.307 831.161,539.355 695.973,537.066 553.71,539.355 521.777,541.23 513.553,541.779 504.921,544.203 521.777,546.249 523.064,546.627 540.214,549.051 568.123,551.475 "/>
<polyline clip-path="url(#clip432)" style="stroke:#83206b; stroke-linecap:round; stroke-linejoin:round; stroke-width:4; stroke-opacity:1; fill:none" points="597.357,551.475 662.008,553.9 695.973,554.779 836.393,553.9 870.168,553.61 922.784,551.475 944.231,549.051 942.869,546.627 920.969,544.203 870.168,541.863 867.679,541.779 767.504,539.355 695.973,538.144 620.699,539.355 554.517,541.779 540.351,544.203 545.917,546.627 563.806,549.051 597.357,551.475 "/>
<polyline clip-path="url(#clip432)" style="stroke:#a72d5f; stroke-linecap:round; stroke-linejoin:round; stroke-width:4; stroke-opacity:1; fill:none" points="626.592,551.475 695.973,553.697 870.168,552.075 884.945,551.475 913.789,549.051 913.527,546.627 887.192,544.203 870.168,543.419 821.501,541.779 703.847,539.355 695.973,539.221 687.687,539.355 592.559,541.779 567.07,544.203 568.77,546.627 587.398,549.051 626.592,551.475 "/>
<polyline clip-path="url(#clip432)" style="stroke:#cb4049; stroke-linecap:round; stroke-linejoin:round; stroke-width:4; stroke-opacity:1; fill:none" points="655.827,551.475 695.973,552.761 816.619,551.475 870.168,550.058 883.347,549.051 884.186,546.627 870.168,545.438 850.169,544.203 775.323,541.779 695.973,540.173 630.602,541.779 593.789,544.203 591.622,546.627 610.99,549.051 655.827,551.475 "/>
<polyline clip-path="url(#clip432)" style="stroke:#e65c2e; stroke-linecap:round; stroke-linejoin:round; stroke-width:4; stroke-opacity:1; fill:none" points="685.062,551.475 695.973,551.825 728.763,551.475 838.999,549.051 847.917,546.627 809.85,544.203 729.146,541.779 695.973,541.108 668.644,541.779 620.508,544.203 614.475,546.627 634.582,549.051 685.062,551.475 "/>
<polyline clip-path="url(#clip432)" style="stroke:#f68111; stroke-linecap:round; stroke-linejoin:round; stroke-width:4; stroke-opacity:1; fill:none" points="695.973,550.794 658.174,549.051 637.328,546.627 647.227,544.203 695.973,542.103 769.53,544.203 805.31,546.627 784.035,549.051 695.973,550.794 "/>
<polyline clip-path="url(#clip432)" style="stroke:#fbac10; stroke-linecap:round; stroke-linejoin:round; stroke-width:4; stroke-opacity:1; fill:none" points="695.973,549.706 681.766,549.051 660.18,546.627 673.946,544.203 695.973,543.254 729.211,544.203 762.704,546.627 729.071,549.051 695.973,549.706 "/>
<polyline clip-path="url(#clip432)" style="stroke:#f5d948; stroke-linecap:round; stroke-linejoin:round; stroke-width:4; stroke-opacity:1; fill:none" points="695.973,548.051 683.033,546.627 695.973,544.777 720.097,546.627 695.973,548.051 "/>
<polyline clip-path="url(#clip432)" style="stroke:#130a34; stroke-linecap:round; stroke-linejoin:round; stroke-width:4; stroke-opacity:1; fill:none" points="642.742,570.869 566.533,573.293 540.016,575.717 531.763,578.142 531.718,580.566 537.228,582.99 549.669,585.414 575.774,587.838 635.8,590.263 695.973,591.67 736.073,592.687 870.168,594.923 1044.36,594.991 1135.7,592.687 1173.28,590.263 1186.83,587.838 1188.95,585.414 1182.81,582.99 1165.97,580.566 1127.74,578.142 1044.36,575.843 1042.49,575.717 1001.79,573.293 911.323,570.869 870.168,570.054 695.973,569.838 642.742,570.869 "/>
<polyline clip-path="url(#clip432)" style="stroke:#390962; stroke-linecap:round; stroke-linejoin:round; stroke-width:4; stroke-opacity:1; fill:none" points="649.898,573.293 590.037,575.717 568.098,578.142 563.636,580.566 571.102,582.99 593.073,585.414 642.882,587.838 695.973,589.302 728.105,590.263 851.546,592.687 870.168,592.997 959.233,592.687 1044.36,592.349 1107.26,590.263 1137.93,587.838 1145.11,585.414 1135.25,582.99 1103.57,580.566 1044.36,578.487 1039.97,578.142 1001.94,575.717 929.638,573.293 870.168,572.013 695.973,572.209 649.898,573.293 "/>
<polyline clip-path="url(#clip432)" style="stroke:#5f126e; stroke-linecap:round; stroke-linejoin:round; stroke-width:4; stroke-opacity:1; fill:none" points="640.059,575.717 604.434,578.142 595.553,580.566 604.976,582.99 636.477,585.414 695.973,587.518 704.451,587.838 789.997,590.263 870.168,591.734 1038.21,590.263 1044.36,590.143 1089.03,587.838 1101.26,585.414 1087.68,582.99 1044.36,580.695 1043.16,580.566 1012.12,578.142 961.382,575.717 870.168,573.469 695.973,573.986 640.059,575.717 "/>
<polyline clip-path="url(#clip432)" style="stroke:#83206b; stroke-linecap:round; stroke-linejoin:round; stroke-width:4; stroke-opacity:1; fill:none" points="690.081,575.717 640.769,578.142 627.471,580.566 638.85,582.99 679.881,585.414 695.973,585.983 745.039,587.838 851.889,590.263 870.168,590.598 908.483,590.263 1039.6,587.838 1044.36,587.292 1057.42,585.414 1044.36,583.549 1042.17,582.99 1019.66,580.566 984.26,578.142 920.827,575.717 870.168,574.469 695.973,575.535 690.081,575.717 "/>
<polyline clip-path="url(#clip432)" style="stroke:#a72d5f; stroke-linecap:round; stroke-linejoin:round; stroke-width:4; stroke-opacity:1; fill:none" points="831.811,575.717 695.973,577.243 677.104,578.142 659.389,580.566 672.725,582.99 695.973,584.255 716.578,585.414 785.628,587.838 870.168,589.65 984.641,587.838 1021.68,585.414 1017.6,582.99 996.152,580.566 956.405,578.142 880.271,575.717 870.168,575.468 831.811,575.717 "/>
<polyline clip-path="url(#clip432)" style="stroke:#cb4049; stroke-linecap:round; stroke-linejoin:round; stroke-width:4; stroke-opacity:1; fill:none" points="728.473,578.142 695.973,580 691.307,580.566 695.973,581.336 706.256,582.99 749.324,585.414 826.217,587.838 870.168,588.78 929.682,587.838 989.375,585.414 993.028,582.99 972.648,580.566 928.549,578.142 870.168,576.357 728.473,578.142 "/>
<polyline clip-path="url(#clip432)" style="stroke:#e65c2e; stroke-linecap:round; stroke-linejoin:round; stroke-width:4; stroke-opacity:1; fill:none" points="796.08,578.142 731.267,580.566 739.039,582.99 782.07,585.414 866.805,587.838 870.168,587.91 874.722,587.838 957.073,585.414 968.456,582.99 949.145,580.566 900.694,578.142 870.168,577.208 796.08,578.142 "/>
<polyline clip-path="url(#clip432)" style="stroke:#f68111; stroke-linecap:round; stroke-linejoin:round; stroke-width:4; stroke-opacity:1; fill:none" points="863.687,578.142 772.605,580.566 771.821,582.99 814.816,585.414 870.168,586.986 924.771,585.414 943.884,582.99 925.641,580.566 872.839,578.142 870.168,578.06 863.687,578.142 "/>
<polyline clip-path="url(#clip432)" style="stroke:#fbac10; stroke-linecap:round; stroke-linejoin:round; stroke-width:4; stroke-opacity:1; fill:none" points="813.942,580.566 804.604,582.99 847.562,585.414 870.168,586.056 892.469,585.414 919.312,582.99 902.137,580.566 870.168,579.11 813.942,580.566 "/>
<polyline clip-path="url(#clip432)" style="stroke:#f5d948; stroke-linecap:round; stroke-linejoin:round; stroke-width:4; stroke-opacity:1; fill:none" points="855.28,580.566 837.386,582.99 870.168,584.841 894.74,582.99 878.634,580.566 870.168,580.18 855.28,580.566 "/>
<polyline clip-path="url(#clip432)" style="stroke:#130a34; stroke-linecap:round; stroke-linejoin:round; stroke-width:4; stroke-opacity:1; fill:none" points="1044.36,463.172 988.616,461.78 923.636,459.356 884.491,456.932 870.168,456.046 796.21,454.508 728.59,452.084 698.214,449.66 695.973,449.367 655.186,447.235 632.457,444.811 625.951,442.387 633.519,439.963 658.761,437.539 695.973,435.733 700.145,435.114 725.929,432.69 778.81,430.266 870.168,428.158 951.413,430.266 1004.15,432.69 1039.43,435.114 1044.36,435.407 1074.82,435.114 1175.35,432.69 1218.56,431.321 1247.09,432.69 1275.41,435.114 1285.53,437.539 1281.64,439.963 1262.07,442.387 1218.56,444.778 1218.41,444.811 1209.44,447.235 1203.47,449.66 1197.69,452.084 1189.78,454.508 1176.3,456.932 1150.33,459.356 1095.34,461.78 1044.36,463.172 "/>
<polyline clip-path="url(#clip432)" style="stroke:#390962; stroke-linecap:round; stroke-linejoin:round; stroke-width:4; stroke-opacity:1; fill:none" points="1044.36,460.51 1002.34,459.356 937.57,456.932 892.547,454.508 870.168,453.379 816.563,452.084 753.77,449.66 724.021,447.235 710.671,444.811 706.968,442.387 710.772,439.963 723.031,437.539 748.427,435.114 798.864,432.69 870.168,430.787 936.4,432.69 991.366,435.114 1034.22,437.539 1044.36,438.023 1165.99,439.963 1182.42,442.387 1184.32,444.811 1182.86,447.235 1179.04,449.66 1171.74,452.084 1158.2,454.508 1132.5,456.932 1081.25,459.356 1044.36,460.51 "/>
<polyline clip-path="url(#clip432)" style="stroke:#5f126e; stroke-linecap:round; stroke-linejoin:round; stroke-width:4; stroke-opacity:1; fill:none" points="1044.36,458.592 990.648,456.932 934.662,454.508 885.997,452.084 870.168,451.446 809.325,449.66 763.765,447.235 742.878,444.811 736.532,442.387 741.511,439.963 759.23,437.539 796.709,435.114 870.168,432.725 943.3,435.114 993.86,437.539 1044.36,439.95 1045.16,439.963 1128.51,442.387 1150.22,444.811 1156.28,447.235 1154.62,449.66 1145.79,452.084 1126.62,454.508 1088.69,456.932 1044.36,458.592 "/>
<polyline clip-path="url(#clip432)" style="stroke:#83206b; stroke-linecap:round; stroke-linejoin:round; stroke-width:4; stroke-opacity:1; fill:none" points="1044.36,456.952 1043.73,456.932 976.777,454.508 926.514,452.084 870.168,449.815 864.881,449.66 803.509,447.235 775.086,444.811 766.097,442.387 772.25,439.963 795.43,437.539 844.991,435.114 870.168,434.296 895.233,435.114 953.5,437.539 1002.95,439.963 1044.36,441.512 1074.61,442.387 1116.13,444.811 1129.7,447.235 1130.19,449.66 1119.84,452.084 1095.04,454.508 1044.89,456.932 1044.36,456.952 "/>
<polyline clip-path="url(#clip432)" style="stroke:#a72d5f; stroke-linecap:round; stroke-linejoin:round; stroke-width:4; stroke-opacity:1; fill:none" points="1044.36,455.428 1018.89,454.508 967.031,452.084 916.273,449.66 870.168,448.273 843.253,447.235 807.294,444.811 795.661,442.387 802.989,439.963 831.629,437.539 870.168,435.866 913.139,437.539 961.269,439.963 1018.53,442.387 1044.36,443.076 1082.04,444.811 1103.12,447.235 1105.77,449.66 1093.89,452.084 1063.46,454.508 1044.36,455.428 "/>
<polyline clip-path="url(#clip432)" style="stroke:#cb4049; stroke-linecap:round; stroke-linejoin:round; stroke-width:4; stroke-opacity:1; fill:none" points="1044.36,453.773 1007.55,452.084 967.228,449.66 906.841,447.235 870.168,446.622 839.501,444.811 825.226,442.387 833.728,439.963 867.828,437.539 870.168,437.437 872.778,437.539 919.585,439.963 959.658,442.387 1044.36,444.646 1047.95,444.811 1076.54,447.235 1081.34,449.66 1067.94,452.084 1044.36,453.773 "/>
<polyline clip-path="url(#clip432)" style="stroke:#e65c2e; stroke-linecap:round; stroke-linejoin:round; stroke-width:4; stroke-opacity:1; fill:none" points="1044.36,451.718 1018.18,449.66 1020.46,447.235 1044.36,446.774 1049.96,447.235 1056.91,449.66 1044.36,451.718 "/>
<polyline clip-path="url(#clip432)" style="stroke:#e65c2e; stroke-linecap:round; stroke-linejoin:round; stroke-width:4; stroke-opacity:1; fill:none" points="870.168,444.607 854.79,442.387 864.467,439.963 870.168,439.562 877.9,439.963 900.79,442.387 870.168,444.607 "/>
<defs>
  <clipPath id="clip433">
    <rect x="1424" y="47" width="49" height="971"/>
  </clipPath>
</defs>
<polyline clip-path="url(#clip433)" style="stroke:#130a34; stroke-linecap:round; stroke-linejoin:round; stroke-width:4; stroke-opacity:1; fill:none" points="1424.76,928.768 1472.76,928.768 "/>
<polyline clip-path="url(#clip433)" style="stroke:#390962; stroke-linecap:round; stroke-linejoin:round; stroke-width:4; stroke-opacity:1; fill:none" points="1424.76,840.615 1472.76,840.615 "/>
<polyline clip-path="url(#clip433)" style="stroke:#60136e; stroke-linecap:round; stroke-linejoin:round; stroke-width:4; stroke-opacity:1; fill:none" points="1424.76,752.463 1472.76,752.463 "/>
<polyline clip-path="url(#clip433)" style="stroke:#85206a; stroke-linecap:round; stroke-linejoin:round; stroke-width:4; stroke-opacity:1; fill:none" points="1424.76,664.31 1472.76,664.31 "/>
<polyline clip-path="url(#clip433)" style="stroke:#a92e5e; stroke-linecap:round; stroke-linejoin:round; stroke-width:4; stroke-opacity:1; fill:none" points="1424.76,576.158 1472.76,576.158 "/>
<polyline clip-path="url(#clip433)" style="stroke:#cb4049; stroke-linecap:round; stroke-linejoin:round; stroke-width:4; stroke-opacity:1; fill:none" points="1424.76,488.006 1472.76,488.006 "/>
<polyline clip-path="url(#clip433)" style="stroke:#e65c2e; stroke-linecap:round; stroke-linejoin:round; stroke-width:4; stroke-opacity:1; fill:none" points="1424.76,399.853 1472.76,399.853 "/>
<polyline clip-path="url(#clip433)" style="stroke:#f68111; stroke-linecap:round; stroke-linejoin:round; stroke-width:4; stroke-opacity:1; fill:none" points="1424.76,311.701 1472.76,311.701 "/>
<polyline clip-path="url(#clip433)" style="stroke:#fbae12; stroke-linecap:round; stroke-linejoin:round; stroke-width:4; stroke-opacity:1; fill:none" points="1424.76,223.549 1472.76,223.549 "/>
<polyline clip-path="url(#clip433)" style="stroke:#f4db4b; stroke-linecap:round; stroke-linejoin:round; stroke-width:4; stroke-opacity:1; fill:none" points="1424.76,135.396 1472.76,135.396 "/>
<path clip-path="url(#clip430)" d="M1508.7 999.09 Q1505.09 999.09 1503.26 1002.65 Q1501.45 1006.2 1501.45 1013.33 Q1501.45 1020.43 1503.26 1024 Q1505.09 1027.54 1508.7 1027.54 Q1512.33 1027.54 1514.14 1024 Q1515.97 1020.43 1515.97 1013.33 Q1515.97 1006.2 1514.14 1002.65 Q1512.33 999.09 1508.7 999.09 M1508.7 995.386 Q1514.51 995.386 1517.57 999.993 Q1520.64 1004.58 1520.64 1013.33 Q1520.64 1022.05 1517.57 1026.66 Q1514.51 1031.24 1508.7 1031.24 Q1502.89 1031.24 1499.81 1026.66 Q1496.76 1022.05 1496.76 1013.33 Q1496.76 1004.58 1499.81 999.993 Q1502.89 995.386 1508.7 995.386 Z" fill="#000000" fill-rule="nonzero" fill-opacity="1" /><path clip-path="url(#clip430)" d="M1497.43 911.094 L1505.07 911.094 L1505.07 884.729 L1496.76 886.395 L1496.76 882.136 L1505.02 880.47 L1509.7 880.47 L1509.7 911.094 L1517.33 911.094 L1517.33 915.03 L1497.43 915.03 L1497.43 911.094 Z" fill="#000000" fill-rule="nonzero" fill-opacity="1" /><path clip-path="url(#clip430)" d="M1502.38 795.553 L1518.7 795.553 L1518.7 799.488 L1496.76 799.488 L1496.76 795.553 Q1499.42 792.798 1504 788.169 Q1508.61 783.516 1509.79 782.173 Q1512.03 779.65 1512.91 777.914 Q1513.82 776.155 1513.82 774.465 Q1513.82 771.71 1511.87 769.974 Q1509.95 768.238 1506.85 768.238 Q1504.65 768.238 1502.2 769.002 Q1499.77 769.766 1496.99 771.317 L1496.99 766.595 Q1499.81 765.46 1502.27 764.882 Q1504.72 764.303 1506.76 764.303 Q1512.13 764.303 1515.32 766.988 Q1518.52 769.673 1518.52 774.164 Q1518.52 776.294 1517.7 778.215 Q1516.92 780.113 1514.81 782.706 Q1514.23 783.377 1511.13 786.595 Q1508.03 789.789 1502.38 795.553 Z" fill="#000000" fill-rule="nonzero" fill-opacity="1" /><path clip-path="url(#clip430)" d="M1512.38 665.312 Q1515.74 666.03 1517.61 668.299 Q1519.51 670.567 1519.51 673.9 Q1519.51 679.016 1515.99 681.817 Q1512.47 684.618 1505.99 684.618 Q1503.82 684.618 1501.5 684.178 Q1499.21 683.761 1496.76 682.905 L1496.76 678.391 Q1498.7 679.525 1501.02 680.104 Q1503.33 680.683 1505.85 680.683 Q1510.25 680.683 1512.54 678.947 Q1514.86 677.211 1514.86 673.9 Q1514.86 670.845 1512.7 669.132 Q1510.58 667.396 1506.76 667.396 L1502.73 667.396 L1502.73 663.553 L1506.94 663.553 Q1510.39 663.553 1512.22 662.187 Q1514.05 660.799 1514.05 658.206 Q1514.05 655.544 1512.15 654.132 Q1510.27 652.697 1506.76 652.697 Q1504.83 652.697 1502.64 653.113 Q1500.44 653.53 1497.8 654.41 L1497.8 650.243 Q1500.46 649.502 1502.77 649.132 Q1505.11 648.762 1507.17 648.762 Q1512.5 648.762 1515.6 651.192 Q1518.7 653.6 1518.7 657.72 Q1518.7 660.59 1517.06 662.581 Q1515.41 664.549 1512.38 665.312 Z" fill="#000000" fill-rule="nonzero" fill-opacity="1" /><path clip-path="url(#clip430)" d="M1512.36 537.919 L1500.55 556.368 L1512.36 556.368 L1512.36 537.919 M1511.13 533.845 L1517.01 533.845 L1517.01 556.368 L1521.94 556.368 L1521.94 560.257 L1517.01 560.257 L1517.01 568.405 L1512.36 568.405 L1512.36 560.257 L1496.76 560.257 L1496.76 555.743 L1511.13 533.845 Z" fill="#000000" fill-rule="nonzero" fill-opacity="1" /><path clip-path="url(#clip430)" d="M1498.21 418.304 L1516.57 418.304 L1516.57 422.239 L1502.5 422.239 L1502.5 430.711 Q1503.52 430.364 1504.53 430.202 Q1505.55 430.017 1506.57 430.017 Q1512.36 430.017 1515.74 433.188 Q1519.12 436.359 1519.12 441.776 Q1519.12 447.354 1515.64 450.456 Q1512.17 453.535 1505.85 453.535 Q1503.68 453.535 1501.41 453.165 Q1499.16 452.794 1496.76 452.053 L1496.76 447.354 Q1498.84 448.489 1501.06 449.044 Q1503.28 449.6 1505.76 449.6 Q1509.77 449.6 1512.1 447.493 Q1514.44 445.387 1514.44 441.776 Q1514.44 438.165 1512.1 436.058 Q1509.77 433.952 1505.76 433.952 Q1503.89 433.952 1502.01 434.368 Q1500.16 434.785 1498.21 435.665 L1498.21 418.304 Z" fill="#000000" fill-rule="nonzero" fill-opacity="1" /><path clip-path="url(#clip430)" d="M1509.09 318.179 Q1505.95 318.179 1504.09 320.332 Q1502.27 322.484 1502.27 326.234 Q1502.27 329.961 1504.09 332.137 Q1505.95 334.29 1509.09 334.29 Q1512.24 334.29 1514.07 332.137 Q1515.92 329.961 1515.92 326.234 Q1515.92 322.484 1514.07 320.332 Q1512.24 318.179 1509.09 318.179 M1518.38 303.526 L1518.38 307.785 Q1516.62 306.952 1514.81 306.512 Q1513.03 306.072 1511.27 306.072 Q1506.64 306.072 1504.19 309.197 Q1501.76 312.322 1501.41 318.642 Q1502.77 316.628 1504.83 315.563 Q1506.89 314.475 1509.37 314.475 Q1514.58 314.475 1517.59 317.646 Q1520.62 320.794 1520.62 326.234 Q1520.62 331.558 1517.47 334.776 Q1514.33 337.993 1509.09 337.993 Q1503.1 337.993 1499.93 333.41 Q1496.76 328.804 1496.76 320.077 Q1496.76 311.882 1500.64 307.021 Q1504.53 302.137 1511.08 302.137 Q1512.84 302.137 1514.63 302.484 Q1516.43 302.832 1518.38 303.526 Z" fill="#000000" fill-rule="nonzero" fill-opacity="1" /><path clip-path="url(#clip430)" d="M1496.76 187.221 L1518.98 187.221 L1518.98 189.211 L1506.43 221.781 L1501.55 221.781 L1513.35 191.156 L1496.76 191.156 L1496.76 187.221 Z" fill="#000000" fill-rule="nonzero" fill-opacity="1" /><path clip-path="url(#clip430)" d="M1508.61 89.8272 Q1505.27 89.8272 1503.35 91.6096 Q1501.45 93.392 1501.45 96.517 Q1501.45 99.642 1503.35 101.424 Q1505.27 103.207 1508.61 103.207 Q1511.94 103.207 1513.86 101.424 Q1515.78 99.6189 1515.78 96.517 Q1515.78 93.392 1513.86 91.6096 Q1511.96 89.8272 1508.61 89.8272 M1503.93 87.8365 Q1500.92 87.0958 1499.23 85.0356 Q1497.57 82.9754 1497.57 80.0125 Q1497.57 75.869 1500.51 73.4616 Q1503.47 71.0542 1508.61 71.0542 Q1513.77 71.0542 1516.71 73.4616 Q1519.65 75.869 1519.65 80.0125 Q1519.65 82.9754 1517.96 85.0356 Q1516.29 87.0958 1513.31 87.8365 Q1516.69 88.6235 1518.56 90.9152 Q1520.46 93.2069 1520.46 96.517 Q1520.46 101.54 1517.38 104.225 Q1514.33 106.91 1508.61 106.91 Q1502.89 106.91 1499.81 104.225 Q1496.76 101.54 1496.76 96.517 Q1496.76 93.2069 1498.65 90.9152 Q1500.55 88.6235 1503.93 87.8365 M1502.22 80.4523 Q1502.22 83.1375 1503.89 84.6421 Q1505.58 86.1467 1508.61 86.1467 Q1511.62 86.1467 1513.31 84.6421 Q1515.02 83.1375 1515.02 80.4523 Q1515.02 77.7671 1513.31 76.2625 Q1511.62 74.7579 1508.61 74.7579 Q1505.58 74.7579 1503.89 76.2625 Q1502.22 77.7671 1502.22 80.4523 Z" fill="#000000" fill-rule="nonzero" fill-opacity="1" /><polyline clip-path="url(#clip430)" style="stroke:#000000; stroke-linecap:round; stroke-linejoin:round; stroke-width:4; stroke-opacity:1; fill:none" points="1472.76,1016.92 1472.76,1016.92 1488.76,1016.92 1472.76,1016.92 1472.76,901.378 1488.76,901.378 1472.76,901.378 1472.76,785.837 1488.76,785.837 1472.76,785.837 1472.76,670.295 1488.76,670.295 1472.76,670.295 1472.76,554.754 1488.76,554.754 1472.76,554.754 1472.76,439.212 1488.76,439.212 1472.76,439.212 1472.76,323.671 1488.76,323.671 1472.76,323.671 1472.76,208.129 1488.76,208.129 1472.76,208.129 1472.76,92.588 1488.76,92.588 1472.76,92.588 1472.76,47.2441 "/>
</svg>
